<?xml version="1.0" standalone="no"?>
<!DOCTYPE svg PUBLIC "-//W3C//DTD SVG 20010904//EN"
 "http://www.w3.org/TR/2001/REC-SVG-20010904/DTD/svg10.dtd">
<svg version="1.0" xmlns="http://www.w3.org/2000/svg"
 width="512.000000pt" height="512.000000pt" viewBox="0 0 512.000000 512.000000"
 preserveAspectRatio="xMidYMid meet">
<metadata>
Created by potrace 1.14, written by Peter Selinger 2001-2017
</metadata>
<g transform="translate(0.000000,512.000000) scale(0.100000,-0.100000)"
fill="#000000" stroke="none">
<path d="M2175 4964 c-296 -23 -488 -79 -576 -170 -40 -42 -35 -42 101 -14
199 42 371 38 810 -20 494 -66 812 -84 1020 -61 142 16 302 49 319 66 21 20
-20 41 -109 55 -41 7 -167 29 -280 50 -242 45 -325 55 -606 75 -219 15 -593
26 -679 19z"/>
<path d="M4160 4874 c-97 -80 -259 -183 -368 -236 -183 -87 -212 -102 -244
-129 -48 -40 -31 -53 61 -46 186 12 427 136 528 269 56 75 93 141 93 166 0 30
-7 28 -70 -24z"/>
<path d="M4145 4659 c-186 -190 -380 -299 -651 -369 -305 -79 -558 -79 -1030
0 -346 58 -552 75 -744 62 -179 -13 -277 -36 -393 -90 -94 -45 -207 -125 -207
-147 0 -19 5 -19 98 5 121 31 204 40 390 40 190 0 359 -15 677 -61 366 -53
435 -60 675 -65 182 -5 255 -3 325 9 50 8 92 13 94 11 12 -11 -268 -305 -739
-774 -694 -692 -871 -888 -1075 -1195 -185 -278 -315 -545 -421 -860 -69 -206
-124 -478 -124 -609 l0 -57 53 63 c45 53 57 78 81 158 89 302 273 668 514
1020 160 234 318 431 628 786 82 93 232 266 334 384 415 480 689 780 979 1071
236 237 272 262 176 123 -268 -388 -774 -1026 -1010 -1274 -300 -315 -665
-789 -665 -863 0 -33 31 -16 141 80 402 347 815 761 1098 1098 327 392 538
727 732 1165 45 102 101 219 125 261 78 134 54 145 -61 28z"/>
<path d="M1807 4705 c-100 -19 -233 -69 -333 -126 -118 -66 -287 -239 -260
-266 3 -3 38 11 78 31 185 93 546 115 1223 75 225 -14 500 -3 544 20 36 20 21
44 -39 64 -474 156 -996 243 -1213 202z"/>
<path d="M4001 3903 c-34 -75 -217 -340 -341 -493 -89 -109 -541 -614 -866
-966 -608 -657 -856 -957 -1096 -1326 l-103 -157 -65 -20 c-35 -11 -65 -19
-67 -18 -1 2 27 68 63 146 102 225 138 351 99 351 -19 0 -106 -117 -190 -255
-69 -113 -225 -416 -225 -436 0 -7 7 -8 18 -4 53 22 254 65 345 75 131 14 430
2 1017 -41 548 -41 742 -36 1031 27 78 17 100 33 74 54 -16 13 -483 98 -680
125 -285 37 -1022 55 -1230 29 l-50 -7 331 334 c182 184 409 424 505 534 95
110 239 272 319 360 317 349 471 531 659 778 140 183 323 455 378 563 54 104
103 250 106 315 2 59 -13 74 -32 32z"/>
<path d="M4025 874 c-123 -85 -240 -144 -407 -203 -246 -88 -317 -126 -278
-151 28 -18 162 -10 275 15 213 48 359 140 497 313 101 127 71 136 -87 26z"/>
<path d="M4087 705 c-326 -265 -694 -395 -1167 -412 -193 -7 -382 6 -705 47
-421 54 -667 61 -890 25 -181 -29 -295 -80 -397 -177 -70 -66 -72 -65 67 -29
215 55 530 56 1315 1 180 -12 602 -12 775 0 372 26 662 146 899 370 143 136
207 220 166 220 -4 0 -33 -20 -63 -45z"/>
<path d="M1536 694 c-276 -54 -516 -216 -591 -396 -20 -50 -4 -57 42 -19 64
51 206 100 381 131 202 36 306 42 857 49 589 8 635 12 643 54 6 28 -71 55
-257 92 -445 90 -889 126 -1075 89z"/>
</g>
</svg>
